<?xml version="1.0" encoding="UTF-8" standalone="no"?>
<!DOCTYPE svg PUBLIC "-//W3C//DTD SVG 1.1//EN"
 "http://www.w3.org/Graphics/SVG/1.1/DTD/svg11.dtd">
<!-- Generated by graphviz version 2.40.1 (20161225.0304)
 -->
<!-- Title: %0 Pages: 1 -->
<svg width="566pt" height="44pt"
 viewBox="0.00 0.00 566.43 44.00" xmlns="http://www.w3.org/2000/svg" xmlns:xlink="http://www.w3.org/1999/xlink">
<g id="graph0" class="graph" transform="scale(1 1) rotate(0) translate(4 40)">
<title>%0</title>
<polygon fill="#ffffff" stroke="transparent" points="-4,4 -4,-40 562.428,-40 562.428,4 -4,4"/>
<!-- InfluxDBSourceConnector -->
<g id="node1" class="node">
<title>InfluxDBSourceConnector</title>
<polygon fill="none" stroke="#000000" points="166.7667,-36 .0777,-36 .0777,0 166.7667,0 166.7667,-36"/>
<text text-anchor="middle" x="83.4222" y="-13.8" font-family="Times,serif" font-size="14.00" fill="#000000">InfluxDBSourceConnector</text>
</g>
<!-- Kafka Connect -->
<g id="node2" class="node">
<title>Kafka Connect</title>
<polygon fill="none" stroke="#000000" points="360.5306,-36 259.8238,-36 259.8238,0 360.5306,0 360.5306,-36"/>
<text text-anchor="middle" x="310.1772" y="-13.8" font-family="Times,serif" font-size="14.00" fill="#000000">Kafka Connect</text>
</g>
<!-- InfluxDBSourceConnector&#45;&gt;Kafka Connect -->
<g id="edge1" class="edge">
<title>InfluxDBSourceConnector&#45;&gt;Kafka Connect</title>
<path fill="none" stroke="#000000" d="M166.8914,-18C194.3054,-18 224.2319,-18 249.6119,-18"/>
<polygon fill="#000000" stroke="#000000" points="249.8249,-21.5001 259.8249,-18 249.8248,-14.5001 249.8249,-21.5001"/>
<text text-anchor="middle" x="213.4226" y="-22.2" font-family="Times,serif" font-size="14.00" fill="#000000">Hosted by</text>
</g>
<!-- Kafka -->
<g id="node3" class="node">
<title>Kafka</title>
<polygon fill="none" stroke="#000000" points="558.428,-36 504.428,-36 504.428,0 558.428,0 558.428,-36"/>
<text text-anchor="middle" x="531.428" y="-13.8" font-family="Times,serif" font-size="14.00" fill="#000000">Kafka</text>
</g>
<!-- Kafka Connect&#45;&gt;Kafka -->
<g id="edge2" class="edge">
<title>Kafka Connect&#45;&gt;Kafka</title>
<path fill="none" stroke="#000000" d="M360.3824,-18C400.9971,-18 457.2852,-18 494.0213,-18"/>
<polygon fill="#000000" stroke="#000000" points="494.2949,-21.5001 504.2948,-18 494.2948,-14.5001 494.2949,-21.5001"/>
<text text-anchor="middle" x="432.3908" y="-22.2" font-family="Times,serif" font-size="14.00" fill="#000000">Writes messages to</text>
</g>
</g>
</svg>
