<?xml version="1.0" encoding="UTF-8" standalone="no"?>
<!DOCTYPE svg PUBLIC "-//W3C//DTD SVG 1.1//EN"
 "http://www.w3.org/Graphics/SVG/1.1/DTD/svg11.dtd">
<!-- Generated by graphviz version 2.30.1 (20150306.0020)
 -->
<!-- Title: %3 Pages: 1 -->
<svg width="558pt" height="44pt"
 viewBox="0.00 0.00 558.00 44.00" xmlns="http://www.w3.org/2000/svg" xmlns:xlink="http://www.w3.org/1999/xlink">
<g id="graph0" class="graph" transform="scale(1 1) rotate(0) translate(4 40)">
<title>%3</title>
<polygon fill="white" stroke="white" points="-4,5 -4,-40 555,-40 555,5 -4,5"/>
<!-- InfluxDBSourceConnector -->
<g id="node1" class="node"><title>InfluxDBSourceConnector</title>
<polygon fill="none" stroke="black" points="162,-36 0,-36 0,-0 162,-0 162,-36"/>
<text text-anchor="middle" x="81" y="-14.3" font-family="Times,serif" font-size="14.00">InfluxDBSourceConnector</text>
</g>
<!-- Kafka Connect -->
<g id="node2" class="node"><title>Kafka Connect</title>
<polygon fill="none" stroke="black" points="352,-36 254,-36 254,-0 352,-0 352,-36"/>
<text text-anchor="middle" x="303" y="-14.3" font-family="Times,serif" font-size="14.00">Kafka Connect</text>
</g>
<!-- InfluxDBSourceConnector&#45;&gt;Kafka Connect -->
<g id="edge1" class="edge"><title>InfluxDBSourceConnector&#45;&gt;Kafka Connect</title>
<path fill="none" stroke="black" d="M162.047,-18C189.043,-18 218.643,-18 243.641,-18"/>
<polygon fill="black" stroke="black" points="243.692,-21.5001 253.692,-18 243.692,-14.5001 243.692,-21.5001"/>
<text text-anchor="middle" x="208" y="-21.8" font-family="Times,serif" font-size="14.00">Hosted by</text>
</g>
<!-- Kafka -->
<g id="node3" class="node"><title>Kafka</title>
<polygon fill="none" stroke="black" points="550,-36 496,-36 496,-0 550,-0 550,-36"/>
<text text-anchor="middle" x="523" y="-14.3" font-family="Times,serif" font-size="14.00">Kafka</text>
</g>
<!-- Kafka Connect&#45;&gt;Kafka -->
<g id="edge2" class="edge"><title>Kafka Connect&#45;&gt;Kafka</title>
<path fill="none" stroke="black" d="M352.111,-18C392.396,-18 449.02,-18 485.614,-18"/>
<polygon fill="black" stroke="black" points="485.83,-21.5001 495.83,-18 485.83,-14.5001 485.83,-21.5001"/>
<text text-anchor="middle" x="424" y="-21.8" font-family="Times,serif" font-size="14.00">Writes messages to</text>
</g>
</g>
</svg>
