<?xml version="1.0" encoding="UTF-8" standalone="no"?>
<!DOCTYPE svg PUBLIC "-//W3C//DTD SVG 1.1//EN"
 "http://www.w3.org/Graphics/SVG/1.1/DTD/svg11.dtd">
<!-- Generated by graphviz version 2.30.1 (20150306.0020)
 -->
<!-- Title: %3 Pages: 1 -->
<svg width="532pt" height="44pt"
 viewBox="0.00 0.00 532.00 44.00" xmlns="http://www.w3.org/2000/svg" xmlns:xlink="http://www.w3.org/1999/xlink">
<g id="graph0" class="graph" transform="scale(1 1) rotate(0) translate(4 40)">
<title>%3</title>
<polygon fill="white" stroke="white" points="-4,5 -4,-40 529,-40 529,5 -4,5"/>
<!-- JMSSourceConnector -->
<g id="node1" class="node"><title>JMSSourceConnector</title>
<polygon fill="none" stroke="black" points="136,-36 0,-36 0,-0 136,-0 136,-36"/>
<text text-anchor="middle" x="68" y="-14.3" font-family="Times,serif" font-size="14.00">JMSSourceConnector</text>
</g>
<!-- Kafka Connect -->
<g id="node2" class="node"><title>Kafka Connect</title>
<polygon fill="none" stroke="black" points="326,-36 228,-36 228,-0 326,-0 326,-36"/>
<text text-anchor="middle" x="277" y="-14.3" font-family="Times,serif" font-size="14.00">Kafka Connect</text>
</g>
<!-- JMSSourceConnector&#45;&gt;Kafka Connect -->
<g id="edge1" class="edge"><title>JMSSourceConnector&#45;&gt;Kafka Connect</title>
<path fill="none" stroke="black" d="M136.207,-18C162.457,-18 192.274,-18 217.608,-18"/>
<polygon fill="black" stroke="black" points="217.803,-21.5001 227.803,-18 217.803,-14.5001 217.803,-21.5001"/>
<text text-anchor="middle" x="182" y="-21.8" font-family="Times,serif" font-size="14.00">Hosted by</text>
</g>
<!-- Kafka -->
<g id="node3" class="node"><title>Kafka</title>
<polygon fill="none" stroke="black" points="524,-36 470,-36 470,-0 524,-0 524,-36"/>
<text text-anchor="middle" x="497" y="-14.3" font-family="Times,serif" font-size="14.00">Kafka</text>
</g>
<!-- Kafka Connect&#45;&gt;Kafka -->
<g id="edge2" class="edge"><title>Kafka Connect&#45;&gt;Kafka</title>
<path fill="none" stroke="black" d="M326.111,-18C366.396,-18 423.02,-18 459.614,-18"/>
<polygon fill="black" stroke="black" points="459.83,-21.5001 469.83,-18 459.83,-14.5001 459.83,-21.5001"/>
<text text-anchor="middle" x="398" y="-21.8" font-family="Times,serif" font-size="14.00">Writes messages to</text>
</g>
</g>
</svg>
