<?xml version="1.0" encoding="UTF-8" standalone="no"?>
<!DOCTYPE svg PUBLIC "-//W3C//DTD SVG 1.1//EN"
 "http://www.w3.org/Graphics/SVG/1.1/DTD/svg11.dtd">
<!-- Generated by graphviz version 2.30.1 (20150306.0020)
 -->
<!-- Title: %3 Pages: 1 -->
<svg width="562pt" height="44pt"
 viewBox="0.00 0.00 562.00 44.00" xmlns="http://www.w3.org/2000/svg" xmlns:xlink="http://www.w3.org/1999/xlink">
<g id="graph0" class="graph" transform="scale(1 1) rotate(0) translate(4 40)">
<title>%3</title>
<polygon fill="white" stroke="white" points="-4,5 -4,-40 559,-40 559,5 -4,5"/>
<!-- MemcachedSinkConnector -->
<g id="node1" class="node"><title>MemcachedSinkConnector</title>
<polygon fill="none" stroke="black" points="165.5,-36 0.5,-36 0.5,-0 165.5,-0 165.5,-36"/>
<text text-anchor="middle" x="83" y="-14.3" font-family="Times,serif" font-size="14.00">MemcachedSinkConnector</text>
</g>
<!-- Kafka Connect -->
<g id="node2" class="node"><title>Kafka Connect</title>
<polygon fill="none" stroke="black" points="356,-36 258,-36 258,-0 356,-0 356,-36"/>
<text text-anchor="middle" x="307" y="-14.3" font-family="Times,serif" font-size="14.00">Kafka Connect</text>
</g>
<!-- MemcachedSinkConnector&#45;&gt;Kafka Connect -->
<g id="edge1" class="edge"><title>MemcachedSinkConnector&#45;&gt;Kafka Connect</title>
<path fill="none" stroke="black" d="M165.719,-18C192.993,-18 222.807,-18 247.908,-18"/>
<polygon fill="black" stroke="black" points="247.996,-21.5001 257.996,-18 247.996,-14.5001 247.996,-21.5001"/>
<text text-anchor="middle" x="212" y="-21.8" font-family="Times,serif" font-size="14.00">Hosted by</text>
</g>
<!-- Kafka -->
<g id="node3" class="node"><title>Kafka</title>
<polygon fill="none" stroke="black" points="554,-36 500,-36 500,-0 554,-0 554,-36"/>
<text text-anchor="middle" x="527" y="-14.3" font-family="Times,serif" font-size="14.00">Kafka</text>
</g>
<!-- Kafka Connect&#45;&gt;Kafka -->
<g id="edge2" class="edge"><title>Kafka Connect&#45;&gt;Kafka</title>
<path fill="none" stroke="black" d="M356.111,-18C396.396,-18 453.02,-18 489.614,-18"/>
<polygon fill="black" stroke="black" points="489.83,-21.5001 499.83,-18 489.83,-14.5001 489.83,-21.5001"/>
<text text-anchor="middle" x="428" y="-21.8" font-family="Times,serif" font-size="14.00">Writes messages to</text>
</g>
</g>
</svg>
