<?xml version="1.0" encoding="UTF-8" standalone="no"?>
<!DOCTYPE svg PUBLIC "-//W3C//DTD SVG 1.1//EN"
 "http://www.w3.org/Graphics/SVG/1.1/DTD/svg11.dtd">
<!-- Generated by graphviz version 2.30.1 (20150306.0020)
 -->
<!-- Title: %3 Pages: 1 -->
<svg width="534pt" height="44pt"
 viewBox="0.00 0.00 534.00 44.00" xmlns="http://www.w3.org/2000/svg" xmlns:xlink="http://www.w3.org/1999/xlink">
<g id="graph0" class="graph" transform="scale(1 1) rotate(0) translate(4 40)">
<title>%3</title>
<polygon fill="white" stroke="white" points="-4,5 -4,-40 531,-40 531,5 -4,5"/>
<!-- MqttSourceConnector -->
<g id="node1" class="node"><title>MqttSourceConnector</title>
<polygon fill="none" stroke="black" points="137.5,-36 0.5,-36 0.5,-0 137.5,-0 137.5,-36"/>
<text text-anchor="middle" x="69" y="-14.3" font-family="Times,serif" font-size="14.00">MqttSourceConnector</text>
</g>
<!-- Kafka Connect -->
<g id="node2" class="node"><title>Kafka Connect</title>
<polygon fill="none" stroke="black" points="328,-36 230,-36 230,-0 328,-0 328,-36"/>
<text text-anchor="middle" x="279" y="-14.3" font-family="Times,serif" font-size="14.00">Kafka Connect</text>
</g>
<!-- MqttSourceConnector&#45;&gt;Kafka Connect -->
<g id="edge1" class="edge"><title>MqttSourceConnector&#45;&gt;Kafka Connect</title>
<path fill="none" stroke="black" d="M137.532,-18C164.013,-18 194.107,-18 219.628,-18"/>
<polygon fill="black" stroke="black" points="219.895,-21.5001 229.895,-18 219.895,-14.5001 219.895,-21.5001"/>
<text text-anchor="middle" x="184" y="-21.8" font-family="Times,serif" font-size="14.00">Hosted by</text>
</g>
<!-- Kafka -->
<g id="node3" class="node"><title>Kafka</title>
<polygon fill="none" stroke="black" points="526,-36 472,-36 472,-0 526,-0 526,-36"/>
<text text-anchor="middle" x="499" y="-14.3" font-family="Times,serif" font-size="14.00">Kafka</text>
</g>
<!-- Kafka Connect&#45;&gt;Kafka -->
<g id="edge2" class="edge"><title>Kafka Connect&#45;&gt;Kafka</title>
<path fill="none" stroke="black" d="M328.111,-18C368.396,-18 425.02,-18 461.614,-18"/>
<polygon fill="black" stroke="black" points="461.83,-21.5001 471.83,-18 461.83,-14.5001 461.83,-21.5001"/>
<text text-anchor="middle" x="400" y="-21.8" font-family="Times,serif" font-size="14.00">Writes messages to</text>
</g>
</g>
</svg>
