<?xml version="1.0" encoding="UTF-8" standalone="no"?>
<!DOCTYPE svg PUBLIC "-//W3C//DTD SVG 1.1//EN"
 "http://www.w3.org/Graphics/SVG/1.1/DTD/svg11.dtd">
<!-- Generated by graphviz version 2.30.1 (20150306.0020)
 -->
<!-- Title: %3 Pages: 1 -->
<svg width="524pt" height="44pt"
 viewBox="0.00 0.00 524.00 44.00" xmlns="http://www.w3.org/2000/svg" xmlns:xlink="http://www.w3.org/1999/xlink">
<g id="graph0" class="graph" transform="scale(1 1) rotate(0) translate(4 40)">
<title>%3</title>
<polygon fill="white" stroke="white" points="-4,5 -4,-40 521,-40 521,5 -4,5"/>
<!-- Kafka -->
<g id="node1" class="node"><title>Kafka</title>
<polygon fill="none" stroke="black" points="54,-36 0,-36 0,-0 54,-0 54,-36"/>
<text text-anchor="middle" x="27" y="-14.3" font-family="Times,serif" font-size="14.00">Kafka</text>
</g>
<!-- Kafka Connect -->
<g id="node2" class="node"><title>Kafka Connect</title>
<polygon fill="none" stroke="black" points="276,-36 178,-36 178,-0 276,-0 276,-36"/>
<text text-anchor="middle" x="227" y="-14.3" font-family="Times,serif" font-size="14.00">Kafka Connect</text>
</g>
<!-- Kafka&#45;&gt;Kafka Connect -->
<g id="edge1" class="edge"><title>Kafka&#45;&gt;Kafka Connect</title>
<path fill="none" stroke="black" d="M54.2929,-18C83.0432,-18 130.026,-18 167.584,-18"/>
<polygon fill="black" stroke="black" points="167.905,-21.5001 177.905,-18 167.905,-14.5001 167.905,-21.5001"/>
<text text-anchor="middle" x="116" y="-21.8" font-family="Times,serif" font-size="14.00">Pulls Data from</text>
</g>
<!-- MqttSinkConnector -->
<g id="node3" class="node"><title>MqttSinkConnector</title>
<polygon fill="none" stroke="black" points="515.5,-36 390.5,-36 390.5,-0 515.5,-0 515.5,-36"/>
<text text-anchor="middle" x="453" y="-14.3" font-family="Times,serif" font-size="14.00">MqttSinkConnector</text>
</g>
<!-- Kafka Connect&#45;&gt;MqttSinkConnector -->
<g id="edge2" class="edge"><title>Kafka Connect&#45;&gt;MqttSinkConnector</title>
<path fill="none" stroke="black" d="M276.054,-18C306.344,-18 346.018,-18 380.024,-18"/>
<polygon fill="black" stroke="black" points="380.379,-21.5001 390.379,-18 380.379,-14.5001 380.379,-21.5001"/>
<text text-anchor="middle" x="333" y="-21.8" font-family="Times,serif" font-size="14.00">Writes data to</text>
</g>
</g>
</svg>
