<?xml version="1.0" encoding="UTF-8" standalone="no"?>
<!DOCTYPE svg PUBLIC "-//W3C//DTD SVG 1.1//EN"
 "http://www.w3.org/Graphics/SVG/1.1/DTD/svg11.dtd">
<!-- Generated by graphviz version 2.30.1 (20150306.0020)
 -->
<!-- Title: %3 Pages: 1 -->
<svg width="542pt" height="44pt"
 viewBox="0.00 0.00 542.00 44.00" xmlns="http://www.w3.org/2000/svg" xmlns:xlink="http://www.w3.org/1999/xlink">
<g id="graph0" class="graph" transform="scale(1 1) rotate(0) translate(4 40)">
<title>%3</title>
<polygon fill="white" stroke="white" points="-4,5 -4,-40 539,-40 539,5 -4,5"/>
<!-- MsSqlSourceConnector -->
<g id="node1" class="node"><title>MsSqlSourceConnector</title>
<polygon fill="none" stroke="black" points="146,-36 0,-36 0,-0 146,-0 146,-36"/>
<text text-anchor="middle" x="73" y="-14.3" font-family="Times,serif" font-size="14.00">MsSqlSourceConnector</text>
</g>
<!-- Kafka Connect -->
<g id="node2" class="node"><title>Kafka Connect</title>
<polygon fill="none" stroke="black" points="336,-36 238,-36 238,-0 336,-0 336,-36"/>
<text text-anchor="middle" x="287" y="-14.3" font-family="Times,serif" font-size="14.00">Kafka Connect</text>
</g>
<!-- MsSqlSourceConnector&#45;&gt;Kafka Connect -->
<g id="edge1" class="edge"><title>MsSqlSourceConnector&#45;&gt;Kafka Connect</title>
<path fill="none" stroke="black" d="M146.069,-18C172.656,-18 202.426,-18 227.65,-18"/>
<polygon fill="black" stroke="black" points="227.797,-21.5001 237.797,-18 227.797,-14.5001 227.797,-21.5001"/>
<text text-anchor="middle" x="192" y="-21.8" font-family="Times,serif" font-size="14.00">Hosted by</text>
</g>
<!-- Kafka -->
<g id="node3" class="node"><title>Kafka</title>
<polygon fill="none" stroke="black" points="534,-36 480,-36 480,-0 534,-0 534,-36"/>
<text text-anchor="middle" x="507" y="-14.3" font-family="Times,serif" font-size="14.00">Kafka</text>
</g>
<!-- Kafka Connect&#45;&gt;Kafka -->
<g id="edge2" class="edge"><title>Kafka Connect&#45;&gt;Kafka</title>
<path fill="none" stroke="black" d="M336.111,-18C376.396,-18 433.02,-18 469.614,-18"/>
<polygon fill="black" stroke="black" points="469.83,-21.5001 479.83,-18 469.83,-14.5001 469.83,-21.5001"/>
<text text-anchor="middle" x="408" y="-21.8" font-family="Times,serif" font-size="14.00">Writes messages to</text>
</g>
</g>
</svg>
