<?xml version="1.0" encoding="UTF-8" standalone="no"?>
<!DOCTYPE svg PUBLIC "-//W3C//DTD SVG 1.1//EN"
 "http://www.w3.org/Graphics/SVG/1.1/DTD/svg11.dtd">
<!-- Generated by graphviz version 2.40.1 (20161225.0304)
 -->
<!-- Title: %0 Pages: 1 -->
<svg width="573pt" height="44pt"
 viewBox="0.00 0.00 572.66 44.00" xmlns="http://www.w3.org/2000/svg" xmlns:xlink="http://www.w3.org/1999/xlink">
<g id="graph0" class="graph" transform="scale(1 1) rotate(0) translate(4 40)">
<title>%0</title>
<polygon fill="#ffffff" stroke="transparent" points="-4,4 -4,-40 568.6566,-40 568.6566,4 -4,4"/>
<!-- RabbitMQSourceConnector -->
<g id="node1" class="node">
<title>RabbitMQSourceConnector</title>
<polygon fill="none" stroke="#000000" points="173.1095,-36 -.0365,-36 -.0365,0 173.1095,0 173.1095,-36"/>
<text text-anchor="middle" x="86.5365" y="-13.8" font-family="Times,serif" font-size="14.00" fill="#000000">RabbitMQSourceConnector</text>
</g>
<!-- Kafka Connect -->
<g id="node2" class="node">
<title>Kafka Connect</title>
<polygon fill="none" stroke="#000000" points="366.7592,-36 266.0524,-36 266.0524,0 366.7592,0 366.7592,-36"/>
<text text-anchor="middle" x="316.4058" y="-13.8" font-family="Times,serif" font-size="14.00" fill="#000000">Kafka Connect</text>
</g>
<!-- RabbitMQSourceConnector&#45;&gt;Kafka Connect -->
<g id="edge1" class="edge">
<title>RabbitMQSourceConnector&#45;&gt;Kafka Connect</title>
<path fill="none" stroke="#000000" d="M173.1127,-18C200.6293,-18 230.459,-18 255.7414,-18"/>
<polygon fill="#000000" stroke="#000000" points="255.9145,-21.5001 265.9145,-18 255.9144,-14.5001 255.9145,-21.5001"/>
<text text-anchor="middle" x="219.6512" y="-22.2" font-family="Times,serif" font-size="14.00" fill="#000000">Hosted by</text>
</g>
<!-- Kafka -->
<g id="node3" class="node">
<title>Kafka</title>
<polygon fill="none" stroke="#000000" points="564.6566,-36 510.6566,-36 510.6566,0 564.6566,0 564.6566,-36"/>
<text text-anchor="middle" x="537.6566" y="-13.8" font-family="Times,serif" font-size="14.00" fill="#000000">Kafka</text>
</g>
<!-- Kafka Connect&#45;&gt;Kafka -->
<g id="edge2" class="edge">
<title>Kafka Connect&#45;&gt;Kafka</title>
<path fill="none" stroke="#000000" d="M366.611,-18C407.2257,-18 463.5138,-18 500.2499,-18"/>
<polygon fill="#000000" stroke="#000000" points="500.5235,-21.5001 510.5234,-18 500.5234,-14.5001 500.5235,-21.5001"/>
<text text-anchor="middle" x="438.6194" y="-22.2" font-family="Times,serif" font-size="14.00" fill="#000000">Writes messages to</text>
</g>
</g>
</svg>
