<?xml version="1.0" encoding="UTF-8" standalone="no"?>
<!DOCTYPE svg PUBLIC "-//W3C//DTD SVG 1.1//EN"
 "http://www.w3.org/Graphics/SVG/1.1/DTD/svg11.dtd">
<!-- Generated by graphviz version 2.30.1 (20150306.0020)
 -->
<!-- Title: %3 Pages: 1 -->
<svg width="566pt" height="44pt"
 viewBox="0.00 0.00 566.00 44.00" xmlns="http://www.w3.org/2000/svg" xmlns:xlink="http://www.w3.org/1999/xlink">
<g id="graph0" class="graph" transform="scale(1 1) rotate(0) translate(4 40)">
<title>%3</title>
<polygon fill="white" stroke="white" points="-4,5 -4,-40 563,-40 563,5 -4,5"/>
<!-- RabbitMQSourceConnector -->
<g id="node1" class="node"><title>RabbitMQSourceConnector</title>
<polygon fill="none" stroke="black" points="169.5,-36 0.5,-36 0.5,-0 169.5,-0 169.5,-36"/>
<text text-anchor="middle" x="85" y="-14.3" font-family="Times,serif" font-size="14.00">RabbitMQSourceConnector</text>
</g>
<!-- Kafka Connect -->
<g id="node2" class="node"><title>Kafka Connect</title>
<polygon fill="none" stroke="black" points="360,-36 262,-36 262,-0 360,-0 360,-36"/>
<text text-anchor="middle" x="311" y="-14.3" font-family="Times,serif" font-size="14.00">Kafka Connect</text>
</g>
<!-- RabbitMQSourceConnector&#45;&gt;Kafka Connect -->
<g id="edge1" class="edge"><title>RabbitMQSourceConnector&#45;&gt;Kafka Connect</title>
<path fill="none" stroke="black" d="M169.728,-18C197.032,-18 226.735,-18 251.75,-18"/>
<polygon fill="black" stroke="black" points="251.803,-21.5001 261.803,-18 251.803,-14.5001 251.803,-21.5001"/>
<text text-anchor="middle" x="216" y="-21.8" font-family="Times,serif" font-size="14.00">Hosted by</text>
</g>
<!-- Kafka -->
<g id="node3" class="node"><title>Kafka</title>
<polygon fill="none" stroke="black" points="558,-36 504,-36 504,-0 558,-0 558,-36"/>
<text text-anchor="middle" x="531" y="-14.3" font-family="Times,serif" font-size="14.00">Kafka</text>
</g>
<!-- Kafka Connect&#45;&gt;Kafka -->
<g id="edge2" class="edge"><title>Kafka Connect&#45;&gt;Kafka</title>
<path fill="none" stroke="black" d="M360.111,-18C400.396,-18 457.02,-18 493.614,-18"/>
<polygon fill="black" stroke="black" points="493.83,-21.5001 503.83,-18 493.83,-14.5001 493.83,-21.5001"/>
<text text-anchor="middle" x="432" y="-21.8" font-family="Times,serif" font-size="14.00">Writes messages to</text>
</g>
</g>
</svg>
