<?xml version="1.0" encoding="UTF-8" standalone="no"?>
<!DOCTYPE svg PUBLIC "-//W3C//DTD SVG 1.1//EN"
 "http://www.w3.org/Graphics/SVG/1.1/DTD/svg11.dtd">
<!-- Generated by graphviz version 2.40.1 (20161225.0304)
 -->
<!-- Title: %0 Pages: 1 -->
<svg width="571pt" height="44pt"
 viewBox="0.00 0.00 571.07 44.00" xmlns="http://www.w3.org/2000/svg" xmlns:xlink="http://www.w3.org/1999/xlink">
<g id="graph0" class="graph" transform="scale(1 1) rotate(0) translate(4 40)">
<title>%0</title>
<polygon fill="#ffffff" stroke="transparent" points="-4,4 -4,-40 567.0704,-40 567.0704,4 -4,4"/>
<!-- SalesforceSourceConnector -->
<g id="node1" class="node">
<title>SalesforceSourceConnector</title>
<polygon fill="none" stroke="#000000" points="171.7309,-36 -.2441,-36 -.2441,0 171.7309,0 171.7309,-36"/>
<text text-anchor="middle" x="85.7434" y="-13.8" font-family="Times,serif" font-size="14.00" fill="#000000">SalesforceSourceConnector</text>
</g>
<!-- Kafka Connect -->
<g id="node2" class="node">
<title>Kafka Connect</title>
<polygon fill="none" stroke="#000000" points="365.173,-36 264.4662,-36 264.4662,0 365.173,0 365.173,-36"/>
<text text-anchor="middle" x="314.8196" y="-13.8" font-family="Times,serif" font-size="14.00" fill="#000000">Kafka Connect</text>
</g>
<!-- SalesforceSourceConnector&#45;&gt;Kafka Connect -->
<g id="edge1" class="edge">
<title>SalesforceSourceConnector&#45;&gt;Kafka Connect</title>
<path fill="none" stroke="#000000" d="M171.6947,-18C199.1439,-18 228.9331,-18 254.1912,-18"/>
<polygon fill="#000000" stroke="#000000" points="254.3552,-21.5001 264.3552,-18 254.3551,-14.5001 254.3552,-21.5001"/>
<text text-anchor="middle" x="218.065" y="-22.2" font-family="Times,serif" font-size="14.00" fill="#000000">Hosted by</text>
</g>
<!-- Kafka -->
<g id="node3" class="node">
<title>Kafka</title>
<polygon fill="none" stroke="#000000" points="563.0704,-36 509.0704,-36 509.0704,0 563.0704,0 563.0704,-36"/>
<text text-anchor="middle" x="536.0704" y="-13.8" font-family="Times,serif" font-size="14.00" fill="#000000">Kafka</text>
</g>
<!-- Kafka Connect&#45;&gt;Kafka -->
<g id="edge2" class="edge">
<title>Kafka Connect&#45;&gt;Kafka</title>
<path fill="none" stroke="#000000" d="M365.0248,-18C405.6395,-18 461.9276,-18 498.6637,-18"/>
<polygon fill="#000000" stroke="#000000" points="498.9373,-21.5001 508.9372,-18 498.9372,-14.5001 498.9373,-21.5001"/>
<text text-anchor="middle" x="437.0332" y="-22.2" font-family="Times,serif" font-size="14.00" fill="#000000">Writes messages to</text>
</g>
</g>
</svg>
