<?xml version="1.0" encoding="UTF-8" standalone="no"?>
<!DOCTYPE svg PUBLIC "-//W3C//DTD SVG 1.1//EN"
 "http://www.w3.org/Graphics/SVG/1.1/DTD/svg11.dtd">
<!-- Generated by graphviz version 2.30.1 (20150306.0020)
 -->
<!-- Title: %3 Pages: 1 -->
<svg width="564pt" height="44pt"
 viewBox="0.00 0.00 564.00 44.00" xmlns="http://www.w3.org/2000/svg" xmlns:xlink="http://www.w3.org/1999/xlink">
<g id="graph0" class="graph" transform="scale(1 1) rotate(0) translate(4 40)">
<title>%3</title>
<polygon fill="white" stroke="white" points="-4,5 -4,-40 561,-40 561,5 -4,5"/>
<!-- SalesforceSourceConnector -->
<g id="node1" class="node"><title>SalesforceSourceConnector</title>
<polygon fill="none" stroke="black" points="167.5,-36 0.5,-36 0.5,-0 167.5,-0 167.5,-36"/>
<text text-anchor="middle" x="84" y="-14.3" font-family="Times,serif" font-size="14.00">SalesforceSourceConnector</text>
</g>
<!-- Kafka Connect -->
<g id="node2" class="node"><title>Kafka Connect</title>
<polygon fill="none" stroke="black" points="358,-36 260,-36 260,-0 358,-0 358,-36"/>
<text text-anchor="middle" x="309" y="-14.3" font-family="Times,serif" font-size="14.00">Kafka Connect</text>
</g>
<!-- SalesforceSourceConnector&#45;&gt;Kafka Connect -->
<g id="edge1" class="edge"><title>SalesforceSourceConnector&#45;&gt;Kafka Connect</title>
<path fill="none" stroke="black" d="M167.72,-18C194.956,-18 224.65,-18 249.678,-18"/>
<polygon fill="black" stroke="black" points="249.738,-21.5001 259.738,-18 249.738,-14.5001 249.738,-21.5001"/>
<text text-anchor="middle" x="214" y="-21.8" font-family="Times,serif" font-size="14.00">Hosted by</text>
</g>
<!-- Kafka -->
<g id="node3" class="node"><title>Kafka</title>
<polygon fill="none" stroke="black" points="556,-36 502,-36 502,-0 556,-0 556,-36"/>
<text text-anchor="middle" x="529" y="-14.3" font-family="Times,serif" font-size="14.00">Kafka</text>
</g>
<!-- Kafka Connect&#45;&gt;Kafka -->
<g id="edge2" class="edge"><title>Kafka Connect&#45;&gt;Kafka</title>
<path fill="none" stroke="black" d="M358.111,-18C398.396,-18 455.02,-18 491.614,-18"/>
<polygon fill="black" stroke="black" points="491.83,-21.5001 501.83,-18 491.83,-14.5001 491.83,-21.5001"/>
<text text-anchor="middle" x="430" y="-21.8" font-family="Times,serif" font-size="14.00">Writes messages to</text>
</g>
</g>
</svg>
