<?xml version="1.0" encoding="UTF-8" standalone="no"?>
<!DOCTYPE svg PUBLIC "-//W3C//DTD SVG 1.1//EN"
 "http://www.w3.org/Graphics/SVG/1.1/DTD/svg11.dtd">
<!-- Generated by graphviz version 2.40.1 (20161225.0304)
 -->
<!-- Title: %0 Pages: 1 -->
<svg width="568pt" height="44pt"
 viewBox="0.00 0.00 567.99 44.00" xmlns="http://www.w3.org/2000/svg" xmlns:xlink="http://www.w3.org/1999/xlink">
<g id="graph0" class="graph" transform="scale(1 1) rotate(0) translate(4 40)">
<title>%0</title>
<polygon fill="#ffffff" stroke="transparent" points="-4,4 -4,-40 563.9932,-40 563.9932,4 -4,4"/>
<!-- SimulatorSourceConnector -->
<g id="node1" class="node">
<title>SimulatorSourceConnector</title>
<polygon fill="none" stroke="#000000" points="168.6149,-36 -.2053,-36 -.2053,0 168.6149,0 168.6149,-36"/>
<text text-anchor="middle" x="84.2048" y="-13.8" font-family="Times,serif" font-size="14.00" fill="#000000">SimulatorSourceConnector</text>
</g>
<!-- Kafka Connect -->
<g id="node2" class="node">
<title>Kafka Connect</title>
<polygon fill="none" stroke="#000000" points="362.0958,-36 261.389,-36 261.389,0 362.0958,0 362.0958,-36"/>
<text text-anchor="middle" x="311.7424" y="-13.8" font-family="Times,serif" font-size="14.00" fill="#000000">Kafka Connect</text>
</g>
<!-- SimulatorSourceConnector&#45;&gt;Kafka Connect -->
<g id="edge1" class="edge">
<title>SimulatorSourceConnector&#45;&gt;Kafka Connect</title>
<path fill="none" stroke="#000000" d="M168.6081,-18C196.0644,-18 225.9701,-18 251.312,-18"/>
<polygon fill="#000000" stroke="#000000" points="251.5085,-21.5001 261.5085,-18 251.5084,-14.5001 251.5085,-21.5001"/>
<text text-anchor="middle" x="214.9878" y="-22.2" font-family="Times,serif" font-size="14.00" fill="#000000">Hosted by</text>
</g>
<!-- Kafka -->
<g id="node3" class="node">
<title>Kafka</title>
<polygon fill="none" stroke="#000000" points="559.9932,-36 505.9932,-36 505.9932,0 559.9932,0 559.9932,-36"/>
<text text-anchor="middle" x="532.9932" y="-13.8" font-family="Times,serif" font-size="14.00" fill="#000000">Kafka</text>
</g>
<!-- Kafka Connect&#45;&gt;Kafka -->
<g id="edge2" class="edge">
<title>Kafka Connect&#45;&gt;Kafka</title>
<path fill="none" stroke="#000000" d="M361.9476,-18C402.5623,-18 458.8504,-18 495.5865,-18"/>
<polygon fill="#000000" stroke="#000000" points="495.8601,-21.5001 505.86,-18 495.86,-14.5001 495.8601,-21.5001"/>
<text text-anchor="middle" x="433.956" y="-22.2" font-family="Times,serif" font-size="14.00" fill="#000000">Writes messages to</text>
</g>
</g>
</svg>
