<?xml version="1.0" encoding="UTF-8" standalone="no"?>
<!DOCTYPE svg PUBLIC "-//W3C//DTD SVG 1.1//EN"
 "http://www.w3.org/Graphics/SVG/1.1/DTD/svg11.dtd">
<!-- Generated by graphviz version 2.40.1 (20161225.0304)
 -->
<!-- Title: %0 Pages: 1 -->
<svg width="557pt" height="44pt"
 viewBox="0.00 0.00 556.74 44.00" xmlns="http://www.w3.org/2000/svg" xmlns:xlink="http://www.w3.org/1999/xlink">
<g id="graph0" class="graph" transform="scale(1 1) rotate(0) translate(4 40)">
<title>%0</title>
<polygon fill="#ffffff" stroke="transparent" points="-4,4 -4,-40 552.7358,-40 552.7358,4 -4,4"/>
<!-- Kafka -->
<g id="node1" class="node">
<title>Kafka</title>
<polygon fill="none" stroke="#000000" points="54,-36 0,-36 0,0 54,0 54,-36"/>
<text text-anchor="middle" x="27" y="-13.8" font-family="Times,serif" font-size="14.00" fill="#000000">Kafka</text>
</g>
<!-- Kafka Connect -->
<g id="node2" class="node">
<title>Kafka Connect</title>
<polygon fill="none" stroke="#000000" points="279.1764,-36 178.4696,-36 178.4696,0 279.1764,0 279.1764,-36"/>
<text text-anchor="middle" x="228.823" y="-13.8" font-family="Times,serif" font-size="14.00" fill="#000000">Kafka Connect</text>
</g>
<!-- Kafka&#45;&gt;Kafka Connect -->
<g id="edge1" class="edge">
<title>Kafka&#45;&gt;Kafka Connect</title>
<path fill="none" stroke="#000000" d="M54.2187,-18C83.2318,-18 130.1146,-18 167.9973,-18"/>
<polygon fill="#000000" stroke="#000000" points="168.4213,-21.5001 178.4212,-18 168.4212,-14.5001 168.4213,-21.5001"/>
<text text-anchor="middle" x="116.3233" y="-22.2" font-family="Times,serif" font-size="14.00" fill="#000000">Pulls Data from</text>
</g>
<!-- SimulatorSinkConnector -->
<g id="node3" class="node">
<title>SimulatorSinkConnector</title>
<polygon fill="none" stroke="#000000" points="548.8411,-36 393.4201,-36 393.4201,0 548.8411,0 548.8411,-36"/>
<text text-anchor="middle" x="471.1306" y="-13.8" font-family="Times,serif" font-size="14.00" fill="#000000">SimulatorSinkConnector</text>
</g>
<!-- Kafka Connect&#45;&gt;SimulatorSinkConnector -->
<g id="edge2" class="edge">
<title>Kafka Connect&#45;&gt;SimulatorSinkConnector</title>
<path fill="none" stroke="#000000" d="M279.0293,-18C309.0567,-18 348.0617,-18 383.0729,-18"/>
<polygon fill="#000000" stroke="#000000" points="383.3119,-21.5001 393.3119,-18 383.3118,-14.5001 383.3119,-21.5001"/>
<text text-anchor="middle" x="336.2624" y="-22.2" font-family="Times,serif" font-size="14.00" fill="#000000">Writes data to</text>
</g>
</g>
</svg>
