<?xml version="1.0" encoding="UTF-8" standalone="no"?>
<!DOCTYPE svg PUBLIC "-//W3C//DTD SVG 1.1//EN"
 "http://www.w3.org/Graphics/SVG/1.1/DTD/svg11.dtd">
<!-- Generated by graphviz version 2.30.1 (20150306.0020)
 -->
<!-- Title: %3 Pages: 1 -->
<svg width="560pt" height="44pt"
 viewBox="0.00 0.00 560.00 44.00" xmlns="http://www.w3.org/2000/svg" xmlns:xlink="http://www.w3.org/1999/xlink">
<g id="graph0" class="graph" transform="scale(1 1) rotate(0) translate(4 40)">
<title>%3</title>
<polygon fill="white" stroke="white" points="-4,5 -4,-40 557,-40 557,5 -4,5"/>
<!-- SimulatorSourceConnector -->
<g id="node1" class="node"><title>SimulatorSourceConnector</title>
<polygon fill="none" stroke="black" points="164,-36 0,-36 0,-0 164,-0 164,-36"/>
<text text-anchor="middle" x="82" y="-14.3" font-family="Times,serif" font-size="14.00">SimulatorSourceConnector</text>
</g>
<!-- Kafka Connect -->
<g id="node2" class="node"><title>Kafka Connect</title>
<polygon fill="none" stroke="black" points="354,-36 256,-36 256,-0 354,-0 354,-36"/>
<text text-anchor="middle" x="305" y="-14.3" font-family="Times,serif" font-size="14.00">Kafka Connect</text>
</g>
<!-- SimulatorSourceConnector&#45;&gt;Kafka Connect -->
<g id="edge1" class="edge"><title>SimulatorSourceConnector&#45;&gt;Kafka Connect</title>
<path fill="none" stroke="black" d="M164.037,-18C191.105,-18 220.718,-18 245.706,-18"/>
<polygon fill="black" stroke="black" points="245.752,-21.5001 255.752,-18 245.752,-14.5001 245.752,-21.5001"/>
<text text-anchor="middle" x="210" y="-21.8" font-family="Times,serif" font-size="14.00">Hosted by</text>
</g>
<!-- Kafka -->
<g id="node3" class="node"><title>Kafka</title>
<polygon fill="none" stroke="black" points="552,-36 498,-36 498,-0 552,-0 552,-36"/>
<text text-anchor="middle" x="525" y="-14.3" font-family="Times,serif" font-size="14.00">Kafka</text>
</g>
<!-- Kafka Connect&#45;&gt;Kafka -->
<g id="edge2" class="edge"><title>Kafka Connect&#45;&gt;Kafka</title>
<path fill="none" stroke="black" d="M354.111,-18C394.396,-18 451.02,-18 487.614,-18"/>
<polygon fill="black" stroke="black" points="487.83,-21.5001 497.83,-18 487.83,-14.5001 487.83,-21.5001"/>
<text text-anchor="middle" x="426" y="-21.8" font-family="Times,serif" font-size="14.00">Writes messages to</text>
</g>
</g>
</svg>
