<?xml version="1.0" encoding="UTF-8" standalone="no"?>
<!DOCTYPE svg PUBLIC "-//W3C//DTD SVG 1.1//EN"
 "http://www.w3.org/Graphics/SVG/1.1/DTD/svg11.dtd">
<!-- Generated by graphviz version 2.40.1 (20161225.0304)
 -->
<!-- Title: %0 Pages: 1 -->
<svg width="572pt" height="44pt"
 viewBox="0.00 0.00 571.87 44.00" xmlns="http://www.w3.org/2000/svg" xmlns:xlink="http://www.w3.org/1999/xlink">
<g id="graph0" class="graph" transform="scale(1 1) rotate(0) translate(4 40)">
<title>%0</title>
<polygon fill="#ffffff" stroke="transparent" points="-4,4 -4,-40 567.874,-40 567.874,4 -4,4"/>
<!-- SnmpTrapSourceConnector -->
<g id="node1" class="node">
<title>SnmpTrapSourceConnector</title>
<polygon fill="none" stroke="#000000" points="172.4358,-36 -.1454,-36 -.1454,0 172.4358,0 172.4358,-36"/>
<text text-anchor="middle" x="86.1452" y="-13.8" font-family="Times,serif" font-size="14.00" fill="#000000">SnmpTrapSourceConnector</text>
</g>
<!-- Kafka Connect -->
<g id="node2" class="node">
<title>Kafka Connect</title>
<polygon fill="none" stroke="#000000" points="365.9766,-36 265.2698,-36 265.2698,0 365.9766,0 365.9766,-36"/>
<text text-anchor="middle" x="315.6232" y="-13.8" font-family="Times,serif" font-size="14.00" fill="#000000">Kafka Connect</text>
</g>
<!-- SnmpTrapSourceConnector&#45;&gt;Kafka Connect -->
<g id="edge1" class="edge">
<title>SnmpTrapSourceConnector&#45;&gt;Kafka Connect</title>
<path fill="none" stroke="#000000" d="M172.574,-18C200.0438,-18 229.8227,-18 255.062,-18"/>
<polygon fill="#000000" stroke="#000000" points="255.2179,-21.5001 265.2178,-18 255.2178,-14.5001 255.2179,-21.5001"/>
<text text-anchor="middle" x="218.8686" y="-22.2" font-family="Times,serif" font-size="14.00" fill="#000000">Hosted by</text>
</g>
<!-- Kafka -->
<g id="node3" class="node">
<title>Kafka</title>
<polygon fill="none" stroke="#000000" points="563.874,-36 509.874,-36 509.874,0 563.874,0 563.874,-36"/>
<text text-anchor="middle" x="536.874" y="-13.8" font-family="Times,serif" font-size="14.00" fill="#000000">Kafka</text>
</g>
<!-- Kafka Connect&#45;&gt;Kafka -->
<g id="edge2" class="edge">
<title>Kafka Connect&#45;&gt;Kafka</title>
<path fill="none" stroke="#000000" d="M365.8284,-18C406.4431,-18 462.7312,-18 499.4673,-18"/>
<polygon fill="#000000" stroke="#000000" points="499.7409,-21.5001 509.7408,-18 499.7408,-14.5001 499.7409,-21.5001"/>
<text text-anchor="middle" x="437.8368" y="-22.2" font-family="Times,serif" font-size="14.00" fill="#000000">Writes messages to</text>
</g>
</g>
</svg>
