<?xml version="1.0" encoding="UTF-8" standalone="no"?>
<!DOCTYPE svg PUBLIC "-//W3C//DTD SVG 1.1//EN"
 "http://www.w3.org/Graphics/SVG/1.1/DTD/svg11.dtd">
<!-- Generated by graphviz version 2.30.1 (20150306.0020)
 -->
<!-- Title: %3 Pages: 1 -->
<svg width="570pt" height="44pt"
 viewBox="0.00 0.00 570.00 44.00" xmlns="http://www.w3.org/2000/svg" xmlns:xlink="http://www.w3.org/1999/xlink">
<g id="graph0" class="graph" transform="scale(1 1) rotate(0) translate(4 40)">
<title>%3</title>
<polygon fill="white" stroke="white" points="-4,5 -4,-40 567,-40 567,5 -4,5"/>
<!-- SplunkHttpSourceConnector -->
<g id="node1" class="node"><title>SplunkHttpSourceConnector</title>
<polygon fill="none" stroke="black" points="173.5,-36 0.5,-36 0.5,-0 173.5,-0 173.5,-36"/>
<text text-anchor="middle" x="87" y="-14.3" font-family="Times,serif" font-size="14.00">SplunkHttpSourceConnector</text>
</g>
<!-- Kafka Connect -->
<g id="node2" class="node"><title>Kafka Connect</title>
<polygon fill="none" stroke="black" points="364,-36 266,-36 266,-0 364,-0 364,-36"/>
<text text-anchor="middle" x="315" y="-14.3" font-family="Times,serif" font-size="14.00">Kafka Connect</text>
</g>
<!-- SplunkHttpSourceConnector&#45;&gt;Kafka Connect -->
<g id="edge1" class="edge"><title>SplunkHttpSourceConnector&#45;&gt;Kafka Connect</title>
<path fill="none" stroke="black" d="M173.763,-18C201.201,-18 230.916,-18 255.901,-18"/>
<polygon fill="black" stroke="black" points="255.941,-21.5001 265.941,-18 255.94,-14.5001 255.941,-21.5001"/>
<text text-anchor="middle" x="220" y="-21.8" font-family="Times,serif" font-size="14.00">Hosted by</text>
</g>
<!-- Kafka -->
<g id="node3" class="node"><title>Kafka</title>
<polygon fill="none" stroke="black" points="562,-36 508,-36 508,-0 562,-0 562,-36"/>
<text text-anchor="middle" x="535" y="-14.3" font-family="Times,serif" font-size="14.00">Kafka</text>
</g>
<!-- Kafka Connect&#45;&gt;Kafka -->
<g id="edge2" class="edge"><title>Kafka Connect&#45;&gt;Kafka</title>
<path fill="none" stroke="black" d="M364.111,-18C404.396,-18 461.02,-18 497.614,-18"/>
<polygon fill="black" stroke="black" points="497.83,-21.5001 507.83,-18 497.83,-14.5001 497.83,-21.5001"/>
<text text-anchor="middle" x="436" y="-21.8" font-family="Times,serif" font-size="14.00">Writes messages to</text>
</g>
</g>
</svg>
