<?xml version="1.0" encoding="UTF-8" standalone="no"?>
<!DOCTYPE svg PUBLIC "-//W3C//DTD SVG 1.1//EN"
 "http://www.w3.org/Graphics/SVG/1.1/DTD/svg11.dtd">
<!-- Generated by graphviz version 2.40.1 (20161225.0304)
 -->
<!-- Title: %0 Pages: 1 -->
<svg width="577pt" height="44pt"
 viewBox="0.00 0.00 577.33 44.00" xmlns="http://www.w3.org/2000/svg" xmlns:xlink="http://www.w3.org/1999/xlink">
<g id="graph0" class="graph" transform="scale(1 1) rotate(0) translate(4 40)">
<title>%0</title>
<polygon fill="#ffffff" stroke="transparent" points="-4,4 -4,-40 573.334,-40 573.334,4 -4,4"/>
<!-- SplunkHttpSourceConnector -->
<g id="node1" class="node">
<title>SplunkHttpSourceConnector</title>
<polygon fill="none" stroke="#000000" points="177.6258,-36 .1246,-36 .1246,0 177.6258,0 177.6258,-36"/>
<text text-anchor="middle" x="88.8752" y="-13.8" font-family="Times,serif" font-size="14.00" fill="#000000">SplunkHttpSourceConnector</text>
</g>
<!-- Kafka Connect -->
<g id="node2" class="node">
<title>Kafka Connect</title>
<polygon fill="none" stroke="#000000" points="371.4366,-36 270.7298,-36 270.7298,0 371.4366,0 371.4366,-36"/>
<text text-anchor="middle" x="321.0832" y="-13.8" font-family="Times,serif" font-size="14.00" fill="#000000">Kafka Connect</text>
</g>
<!-- SplunkHttpSourceConnector&#45;&gt;Kafka Connect -->
<g id="edge1" class="edge">
<title>SplunkHttpSourceConnector&#45;&gt;Kafka Connect</title>
<path fill="none" stroke="#000000" d="M177.657,-18C205.3393,-18 235.2185,-18 260.5027,-18"/>
<polygon fill="#000000" stroke="#000000" points="260.6741,-21.5001 270.674,-18 260.674,-14.5001 260.6741,-21.5001"/>
<text text-anchor="middle" x="224.3286" y="-22.2" font-family="Times,serif" font-size="14.00" fill="#000000">Hosted by</text>
</g>
<!-- Kafka -->
<g id="node3" class="node">
<title>Kafka</title>
<polygon fill="none" stroke="#000000" points="569.334,-36 515.334,-36 515.334,0 569.334,0 569.334,-36"/>
<text text-anchor="middle" x="542.334" y="-13.8" font-family="Times,serif" font-size="14.00" fill="#000000">Kafka</text>
</g>
<!-- Kafka Connect&#45;&gt;Kafka -->
<g id="edge2" class="edge">
<title>Kafka Connect&#45;&gt;Kafka</title>
<path fill="none" stroke="#000000" d="M371.2884,-18C411.9031,-18 468.1912,-18 504.9273,-18"/>
<polygon fill="#000000" stroke="#000000" points="505.2009,-21.5001 515.2008,-18 505.2008,-14.5001 505.2009,-21.5001"/>
<text text-anchor="middle" x="443.2968" y="-22.2" font-family="Times,serif" font-size="14.00" fill="#000000">Writes messages to</text>
</g>
</g>
</svg>
