<?xml version="1.0" encoding="UTF-8" standalone="no"?>
<!DOCTYPE svg PUBLIC "-//W3C//DTD SVG 1.1//EN"
 "http://www.w3.org/Graphics/SVG/1.1/DTD/svg11.dtd">
<!-- Generated by graphviz version 2.30.1 (20150306.0020)
 -->
<!-- Title: %3 Pages: 1 -->
<svg width="558pt" height="44pt"
 viewBox="0.00 0.00 558.00 44.00" xmlns="http://www.w3.org/2000/svg" xmlns:xlink="http://www.w3.org/1999/xlink">
<g id="graph0" class="graph" transform="scale(1 1) rotate(0) translate(4 40)">
<title>%3</title>
<polygon fill="white" stroke="white" points="-4,5 -4,-40 555,-40 555,5 -4,5"/>
<!-- Kafka -->
<g id="node1" class="node"><title>Kafka</title>
<polygon fill="none" stroke="black" points="54,-36 0,-36 0,-0 54,-0 54,-36"/>
<text text-anchor="middle" x="27" y="-14.3" font-family="Times,serif" font-size="14.00">Kafka</text>
</g>
<!-- Kafka Connect -->
<g id="node2" class="node"><title>Kafka Connect</title>
<polygon fill="none" stroke="black" points="276,-36 178,-36 178,-0 276,-0 276,-36"/>
<text text-anchor="middle" x="227" y="-14.3" font-family="Times,serif" font-size="14.00">Kafka Connect</text>
</g>
<!-- Kafka&#45;&gt;Kafka Connect -->
<g id="edge1" class="edge"><title>Kafka&#45;&gt;Kafka Connect</title>
<path fill="none" stroke="black" d="M54.2929,-18C83.0432,-18 130.026,-18 167.584,-18"/>
<polygon fill="black" stroke="black" points="167.905,-21.5001 177.905,-18 167.905,-14.5001 167.905,-21.5001"/>
<text text-anchor="middle" x="116" y="-21.8" font-family="Times,serif" font-size="14.00">Pulls Data from</text>
</g>
<!-- SplunkHttpSinkConnector -->
<g id="node3" class="node"><title>SplunkHttpSinkConnector</title>
<polygon fill="none" stroke="black" points="550,-36 390,-36 390,-0 550,-0 550,-36"/>
<text text-anchor="middle" x="470" y="-14.3" font-family="Times,serif" font-size="14.00">SplunkHttpSinkConnector</text>
</g>
<!-- Kafka Connect&#45;&gt;SplunkHttpSinkConnector -->
<g id="edge2" class="edge"><title>Kafka Connect&#45;&gt;SplunkHttpSinkConnector</title>
<path fill="none" stroke="black" d="M276.191,-18C305.696,-18 344.379,-18 379.347,-18"/>
<polygon fill="black" stroke="black" points="379.582,-21.5001 389.582,-18 379.582,-14.5001 379.582,-21.5001"/>
<text text-anchor="middle" x="333" y="-21.8" font-family="Times,serif" font-size="14.00">Writes data to</text>
</g>
</g>
</svg>
