<?xml version="1.0" encoding="UTF-8" standalone="no"?>
<!DOCTYPE svg PUBLIC "-//W3C//DTD SVG 1.1//EN"
 "http://www.w3.org/Graphics/SVG/1.1/DTD/svg11.dtd">
<!-- Generated by graphviz version 2.30.1 (20150306.0020)
 -->
<!-- Title: %3 Pages: 1 -->
<svg width="580pt" height="44pt"
 viewBox="0.00 0.00 580.00 44.00" xmlns="http://www.w3.org/2000/svg" xmlns:xlink="http://www.w3.org/1999/xlink">
<g id="graph0" class="graph" transform="scale(1 1) rotate(0) translate(4 40)">
<title>%3</title>
<polygon fill="white" stroke="white" points="-4,5 -4,-40 577,-40 577,5 -4,5"/>
<!-- SpoolDirELFSourceConnector -->
<g id="node1" class="node"><title>SpoolDirELFSourceConnector</title>
<polygon fill="none" stroke="black" points="184,-36 0,-36 0,-0 184,-0 184,-36"/>
<text text-anchor="middle" x="92" y="-14.3" font-family="Times,serif" font-size="14.00">SpoolDirELFSourceConnector</text>
</g>
<!-- Kafka Connect -->
<g id="node2" class="node"><title>Kafka Connect</title>
<polygon fill="none" stroke="black" points="374,-36 276,-36 276,-0 374,-0 374,-36"/>
<text text-anchor="middle" x="325" y="-14.3" font-family="Times,serif" font-size="14.00">Kafka Connect</text>
</g>
<!-- SpoolDirELFSourceConnector&#45;&gt;Kafka Connect -->
<g id="edge1" class="edge"><title>SpoolDirELFSourceConnector&#45;&gt;Kafka Connect</title>
<path fill="none" stroke="black" d="M184.297,-18C211.663,-18 240.927,-18 265.564,-18"/>
<polygon fill="black" stroke="black" points="265.821,-21.5001 275.821,-18 265.821,-14.5001 265.821,-21.5001"/>
<text text-anchor="middle" x="230" y="-21.8" font-family="Times,serif" font-size="14.00">Hosted by</text>
</g>
<!-- Kafka -->
<g id="node3" class="node"><title>Kafka</title>
<polygon fill="none" stroke="black" points="572,-36 518,-36 518,-0 572,-0 572,-36"/>
<text text-anchor="middle" x="545" y="-14.3" font-family="Times,serif" font-size="14.00">Kafka</text>
</g>
<!-- Kafka Connect&#45;&gt;Kafka -->
<g id="edge2" class="edge"><title>Kafka Connect&#45;&gt;Kafka</title>
<path fill="none" stroke="black" d="M374.111,-18C414.396,-18 471.02,-18 507.614,-18"/>
<polygon fill="black" stroke="black" points="507.83,-21.5001 517.83,-18 507.83,-14.5001 507.83,-21.5001"/>
<text text-anchor="middle" x="446" y="-21.8" font-family="Times,serif" font-size="14.00">Writes messages to</text>
</g>
</g>
</svg>
