<?xml version="1.0" encoding="UTF-8" standalone="no"?>
<!DOCTYPE svg PUBLIC "-//W3C//DTD SVG 1.1//EN"
 "http://www.w3.org/Graphics/SVG/1.1/DTD/svg11.dtd">
<!-- Generated by graphviz version 2.40.1 (20161225.0304)
 -->
<!-- Title: %0 Pages: 1 -->
<svg width="589pt" height="44pt"
 viewBox="0.00 0.00 588.99 44.00" xmlns="http://www.w3.org/2000/svg" xmlns:xlink="http://www.w3.org/1999/xlink">
<g id="graph0" class="graph" transform="scale(1 1) rotate(0) translate(4 40)">
<title>%0</title>
<polygon fill="#ffffff" stroke="transparent" points="-4,4 -4,-40 584.9932,-40 584.9932,4 -4,4"/>
<!-- SpoolDirJsonSourceConnector -->
<g id="node1" class="node">
<title>SpoolDirJsonSourceConnector</title>
<polygon fill="none" stroke="#000000" points="189.6148,-36 -.2052,-36 -.2052,0 189.6148,0 189.6148,-36"/>
<text text-anchor="middle" x="94.7048" y="-13.8" font-family="Times,serif" font-size="14.00" fill="#000000">SpoolDirJsonSourceConnector</text>
</g>
<!-- Kafka Connect -->
<g id="node2" class="node">
<title>Kafka Connect</title>
<polygon fill="none" stroke="#000000" points="383.0958,-36 282.389,-36 282.389,0 383.0958,0 383.0958,-36"/>
<text text-anchor="middle" x="332.7424" y="-13.8" font-family="Times,serif" font-size="14.00" fill="#000000">Kafka Connect</text>
</g>
<!-- SpoolDirJsonSourceConnector&#45;&gt;Kafka Connect -->
<g id="edge1" class="edge">
<title>SpoolDirJsonSourceConnector&#45;&gt;Kafka Connect</title>
<path fill="none" stroke="#000000" d="M189.4675,-18C217.3854,-18 247.1628,-18 272.2975,-18"/>
<polygon fill="#000000" stroke="#000000" points="272.4051,-21.5001 282.4051,-18 272.4051,-14.5001 272.4051,-21.5001"/>
<text text-anchor="middle" x="235.9878" y="-22.2" font-family="Times,serif" font-size="14.00" fill="#000000">Hosted by</text>
</g>
<!-- Kafka -->
<g id="node3" class="node">
<title>Kafka</title>
<polygon fill="none" stroke="#000000" points="580.9932,-36 526.9932,-36 526.9932,0 580.9932,0 580.9932,-36"/>
<text text-anchor="middle" x="553.9932" y="-13.8" font-family="Times,serif" font-size="14.00" fill="#000000">Kafka</text>
</g>
<!-- Kafka Connect&#45;&gt;Kafka -->
<g id="edge2" class="edge">
<title>Kafka Connect&#45;&gt;Kafka</title>
<path fill="none" stroke="#000000" d="M382.9476,-18C423.5623,-18 479.8504,-18 516.5865,-18"/>
<polygon fill="#000000" stroke="#000000" points="516.8601,-21.5001 526.86,-18 516.86,-14.5001 516.8601,-21.5001"/>
<text text-anchor="middle" x="454.956" y="-22.2" font-family="Times,serif" font-size="14.00" fill="#000000">Writes messages to</text>
</g>
</g>
</svg>
