<?xml version="1.0" encoding="UTF-8" standalone="no"?>
<!DOCTYPE svg PUBLIC "-//W3C//DTD SVG 1.1//EN"
 "http://www.w3.org/Graphics/SVG/1.1/DTD/svg11.dtd">
<!-- Generated by graphviz version 2.40.1 (20161225.0304)
 -->
<!-- Title: %0 Pages: 1 -->
<svg width="586pt" height="44pt"
 viewBox="0.00 0.00 585.89 44.00" xmlns="http://www.w3.org/2000/svg" xmlns:xlink="http://www.w3.org/1999/xlink">
<g id="graph0" class="graph" transform="scale(1 1) rotate(0) translate(4 40)">
<title>%0</title>
<polygon fill="#ffffff" stroke="transparent" points="-4,4 -4,-40 581.8852,-40 581.8852,4 -4,4"/>
<!-- SpoolDirCsvSourceConnector -->
<g id="node1" class="node">
<title>SpoolDirCsvSourceConnector</title>
<polygon fill="none" stroke="#000000" points="186.4526,-36 -.151,-36 -.151,0 186.4526,0 186.4526,-36"/>
<text text-anchor="middle" x="93.1508" y="-13.8" font-family="Times,serif" font-size="14.00" fill="#000000">SpoolDirCsvSourceConnector</text>
</g>
<!-- Kafka Connect -->
<g id="node2" class="node">
<title>Kafka Connect</title>
<polygon fill="none" stroke="#000000" points="379.9878,-36 279.281,-36 279.281,0 379.9878,0 379.9878,-36"/>
<text text-anchor="middle" x="329.6344" y="-13.8" font-family="Times,serif" font-size="14.00" fill="#000000">Kafka Connect</text>
</g>
<!-- SpoolDirCsvSourceConnector&#45;&gt;Kafka Connect -->
<g id="edge1" class="edge">
<title>SpoolDirCsvSourceConnector&#45;&gt;Kafka Connect</title>
<path fill="none" stroke="#000000" d="M186.6154,-18C214.4156,-18 244.129,-18 269.2291,-18"/>
<polygon fill="#000000" stroke="#000000" points="269.3241,-21.5001 279.3241,-18 269.324,-14.5001 269.3241,-21.5001"/>
<text text-anchor="middle" x="232.8798" y="-22.2" font-family="Times,serif" font-size="14.00" fill="#000000">Hosted by</text>
</g>
<!-- Kafka -->
<g id="node3" class="node">
<title>Kafka</title>
<polygon fill="none" stroke="#000000" points="577.8852,-36 523.8852,-36 523.8852,0 577.8852,0 577.8852,-36"/>
<text text-anchor="middle" x="550.8852" y="-13.8" font-family="Times,serif" font-size="14.00" fill="#000000">Kafka</text>
</g>
<!-- Kafka Connect&#45;&gt;Kafka -->
<g id="edge2" class="edge">
<title>Kafka Connect&#45;&gt;Kafka</title>
<path fill="none" stroke="#000000" d="M379.8396,-18C420.4543,-18 476.7424,-18 513.4785,-18"/>
<polygon fill="#000000" stroke="#000000" points="513.7521,-21.5001 523.752,-18 513.752,-14.5001 513.7521,-21.5001"/>
<text text-anchor="middle" x="451.848" y="-22.2" font-family="Times,serif" font-size="14.00" fill="#000000">Writes messages to</text>
</g>
</g>
</svg>
