<?xml version="1.0" encoding="UTF-8" standalone="no"?>
<!DOCTYPE svg PUBLIC "-//W3C//DTD SVG 1.1//EN"
 "http://www.w3.org/Graphics/SVG/1.1/DTD/svg11.dtd">
<!-- Generated by graphviz version 2.30.1 (20150306.0020)
 -->
<!-- Title: %3 Pages: 1 -->
<svg width="578pt" height="44pt"
 viewBox="0.00 0.00 578.00 44.00" xmlns="http://www.w3.org/2000/svg" xmlns:xlink="http://www.w3.org/1999/xlink">
<g id="graph0" class="graph" transform="scale(1 1) rotate(0) translate(4 40)">
<title>%3</title>
<polygon fill="white" stroke="white" points="-4,5 -4,-40 575,-40 575,5 -4,5"/>
<!-- SpoolDirCsvSourceConnector -->
<g id="node1" class="node"><title>SpoolDirCsvSourceConnector</title>
<polygon fill="none" stroke="black" points="181.5,-36 0.5,-36 0.5,-0 181.5,-0 181.5,-36"/>
<text text-anchor="middle" x="91" y="-14.3" font-family="Times,serif" font-size="14.00">SpoolDirCsvSourceConnector</text>
</g>
<!-- Kafka Connect -->
<g id="node2" class="node"><title>Kafka Connect</title>
<polygon fill="none" stroke="black" points="372,-36 274,-36 274,-0 372,-0 372,-36"/>
<text text-anchor="middle" x="323" y="-14.3" font-family="Times,serif" font-size="14.00">Kafka Connect</text>
</g>
<!-- SpoolDirCsvSourceConnector&#45;&gt;Kafka Connect -->
<g id="edge1" class="edge"><title>SpoolDirCsvSourceConnector&#45;&gt;Kafka Connect</title>
<path fill="none" stroke="black" d="M181.583,-18C209.187,-18 238.847,-18 263.763,-18"/>
<polygon fill="black" stroke="black" points="263.774,-21.5001 273.774,-18 263.773,-14.5001 263.774,-21.5001"/>
<text text-anchor="middle" x="228" y="-21.8" font-family="Times,serif" font-size="14.00">Hosted by</text>
</g>
<!-- Kafka -->
<g id="node3" class="node"><title>Kafka</title>
<polygon fill="none" stroke="black" points="570,-36 516,-36 516,-0 570,-0 570,-36"/>
<text text-anchor="middle" x="543" y="-14.3" font-family="Times,serif" font-size="14.00">Kafka</text>
</g>
<!-- Kafka Connect&#45;&gt;Kafka -->
<g id="edge2" class="edge"><title>Kafka Connect&#45;&gt;Kafka</title>
<path fill="none" stroke="black" d="M372.111,-18C412.396,-18 469.02,-18 505.614,-18"/>
<polygon fill="black" stroke="black" points="505.83,-21.5001 515.83,-18 505.83,-14.5001 505.83,-21.5001"/>
<text text-anchor="middle" x="444" y="-21.8" font-family="Times,serif" font-size="14.00">Writes messages to</text>
</g>
</g>
</svg>
