<?xml version="1.0" encoding="UTF-8" standalone="no"?>
<!DOCTYPE svg PUBLIC "-//W3C//DTD SVG 1.1//EN"
 "http://www.w3.org/Graphics/SVG/1.1/DTD/svg11.dtd">
<!-- Generated by graphviz version 2.30.1 (20150306.0020)
 -->
<!-- Title: %3 Pages: 1 -->
<svg width="592pt" height="44pt"
 viewBox="0.00 0.00 592.00 44.00" xmlns="http://www.w3.org/2000/svg" xmlns:xlink="http://www.w3.org/1999/xlink">
<g id="graph0" class="graph" transform="scale(1 1) rotate(0) translate(4 40)">
<title>%3</title>
<polygon fill="white" stroke="white" points="-4,5 -4,-40 589,-40 589,5 -4,5"/>
<!-- SSLTCPSyslogSourceConnector -->
<g id="node1" class="node"><title>SSLTCPSyslogSourceConnector</title>
<polygon fill="none" stroke="black" points="195.5,-36 0.5,-36 0.5,-0 195.5,-0 195.5,-36"/>
<text text-anchor="middle" x="98" y="-14.3" font-family="Times,serif" font-size="14.00">SSLTCPSyslogSourceConnector</text>
</g>
<!-- Kafka Connect -->
<g id="node2" class="node"><title>Kafka Connect</title>
<polygon fill="none" stroke="black" points="386,-36 288,-36 288,-0 386,-0 386,-36"/>
<text text-anchor="middle" x="337" y="-14.3" font-family="Times,serif" font-size="14.00">Kafka Connect</text>
</g>
<!-- SSLTCPSyslogSourceConnector&#45;&gt;Kafka Connect -->
<g id="edge1" class="edge"><title>SSLTCPSyslogSourceConnector&#45;&gt;Kafka Connect</title>
<path fill="none" stroke="black" d="M195.739,-18C223.514,-18 252.94,-18 277.629,-18"/>
<polygon fill="black" stroke="black" points="277.901,-21.5001 287.901,-18 277.901,-14.5001 277.901,-21.5001"/>
<text text-anchor="middle" x="242" y="-21.8" font-family="Times,serif" font-size="14.00">Hosted by</text>
</g>
<!-- Kafka -->
<g id="node3" class="node"><title>Kafka</title>
<polygon fill="none" stroke="black" points="584,-36 530,-36 530,-0 584,-0 584,-36"/>
<text text-anchor="middle" x="557" y="-14.3" font-family="Times,serif" font-size="14.00">Kafka</text>
</g>
<!-- Kafka Connect&#45;&gt;Kafka -->
<g id="edge2" class="edge"><title>Kafka Connect&#45;&gt;Kafka</title>
<path fill="none" stroke="black" d="M386.111,-18C426.396,-18 483.02,-18 519.614,-18"/>
<polygon fill="black" stroke="black" points="519.83,-21.5001 529.83,-18 519.83,-14.5001 519.83,-21.5001"/>
<text text-anchor="middle" x="458" y="-21.8" font-family="Times,serif" font-size="14.00">Writes messages to</text>
</g>
</g>
</svg>
