<?xml version="1.0" encoding="UTF-8" standalone="no"?>
<!DOCTYPE svg PUBLIC "-//W3C//DTD SVG 1.1//EN"
 "http://www.w3.org/Graphics/SVG/1.1/DTD/svg11.dtd">
<!-- Generated by graphviz version 2.40.1 (20161225.0304)
 -->
<!-- Title: %0 Pages: 1 -->
<svg width="601pt" height="44pt"
 viewBox="0.00 0.00 600.68 44.00" xmlns="http://www.w3.org/2000/svg" xmlns:xlink="http://www.w3.org/1999/xlink">
<g id="graph0" class="graph" transform="scale(1 1) rotate(0) translate(4 40)">
<title>%0</title>
<polygon fill="#ffffff" stroke="transparent" points="-4,4 -4,-40 596.6804,-40 596.6804,4 -4,4"/>
<!-- SSLTCPSyslogSourceConnector -->
<g id="node1" class="node">
<title>SSLTCPSyslogSourceConnector</title>
<polygon fill="none" stroke="#000000" points="201.1452,-36 -.0484,-36 -.0484,0 201.1452,0 201.1452,-36"/>
<text text-anchor="middle" x="100.5484" y="-13.8" font-family="Times,serif" font-size="14.00" fill="#000000">SSLTCPSyslogSourceConnector</text>
</g>
<!-- Kafka Connect -->
<g id="node2" class="node">
<title>Kafka Connect</title>
<polygon fill="none" stroke="#000000" points="394.783,-36 294.0762,-36 294.0762,0 394.783,0 394.783,-36"/>
<text text-anchor="middle" x="344.4296" y="-13.8" font-family="Times,serif" font-size="14.00" fill="#000000">Kafka Connect</text>
</g>
<!-- SSLTCPSyslogSourceConnector&#45;&gt;Kafka Connect -->
<g id="edge1" class="edge">
<title>SSLTCPSyslogSourceConnector&#45;&gt;Kafka Connect</title>
<path fill="none" stroke="#000000" d="M201.1522,-18C229.2908,-18 258.9938,-18 284.0142,-18"/>
<polygon fill="#000000" stroke="#000000" points="284.0729,-21.5001 294.0729,-18 284.0729,-14.5001 284.0729,-21.5001"/>
<text text-anchor="middle" x="247.675" y="-22.2" font-family="Times,serif" font-size="14.00" fill="#000000">Hosted by</text>
</g>
<!-- Kafka -->
<g id="node3" class="node">
<title>Kafka</title>
<polygon fill="none" stroke="#000000" points="592.6804,-36 538.6804,-36 538.6804,0 592.6804,0 592.6804,-36"/>
<text text-anchor="middle" x="565.6804" y="-13.8" font-family="Times,serif" font-size="14.00" fill="#000000">Kafka</text>
</g>
<!-- Kafka Connect&#45;&gt;Kafka -->
<g id="edge2" class="edge">
<title>Kafka Connect&#45;&gt;Kafka</title>
<path fill="none" stroke="#000000" d="M394.6348,-18C435.2495,-18 491.5376,-18 528.2737,-18"/>
<polygon fill="#000000" stroke="#000000" points="528.5473,-21.5001 538.5472,-18 528.5472,-14.5001 528.5473,-21.5001"/>
<text text-anchor="middle" x="466.6432" y="-22.2" font-family="Times,serif" font-size="14.00" fill="#000000">Writes messages to</text>
</g>
</g>
</svg>
