<?xml version="1.0" encoding="UTF-8" standalone="no"?>
<!DOCTYPE svg PUBLIC "-//W3C//DTD SVG 1.1//EN"
 "http://www.w3.org/Graphics/SVG/1.1/DTD/svg11.dtd">
<!-- Generated by graphviz version 2.30.1 (20150306.0020)
 -->
<!-- Title: %3 Pages: 1 -->
<svg width="568pt" height="44pt"
 viewBox="0.00 0.00 568.00 44.00" xmlns="http://www.w3.org/2000/svg" xmlns:xlink="http://www.w3.org/1999/xlink">
<g id="graph0" class="graph" transform="scale(1 1) rotate(0) translate(4 40)">
<title>%3</title>
<polygon fill="white" stroke="white" points="-4,5 -4,-40 565,-40 565,5 -4,5"/>
<!-- TCPSyslogSourceConnector -->
<g id="node1" class="node"><title>TCPSyslogSourceConnector</title>
<polygon fill="none" stroke="black" points="172,-36 0,-36 0,-0 172,-0 172,-36"/>
<text text-anchor="middle" x="86" y="-14.3" font-family="Times,serif" font-size="14.00">TCPSyslogSourceConnector</text>
</g>
<!-- Kafka Connect -->
<g id="node2" class="node"><title>Kafka Connect</title>
<polygon fill="none" stroke="black" points="362,-36 264,-36 264,-0 362,-0 362,-36"/>
<text text-anchor="middle" x="313" y="-14.3" font-family="Times,serif" font-size="14.00">Kafka Connect</text>
</g>
<!-- TCPSyslogSourceConnector&#45;&gt;Kafka Connect -->
<g id="edge1" class="edge"><title>TCPSyslogSourceConnector&#45;&gt;Kafka Connect</title>
<path fill="none" stroke="black" d="M172.063,-18C199.176,-18 228.554,-18 253.36,-18"/>
<polygon fill="black" stroke="black" points="253.691,-21.5001 263.691,-18 253.691,-14.5001 253.691,-21.5001"/>
<text text-anchor="middle" x="218" y="-21.8" font-family="Times,serif" font-size="14.00">Hosted by</text>
</g>
<!-- Kafka -->
<g id="node3" class="node"><title>Kafka</title>
<polygon fill="none" stroke="black" points="560,-36 506,-36 506,-0 560,-0 560,-36"/>
<text text-anchor="middle" x="533" y="-14.3" font-family="Times,serif" font-size="14.00">Kafka</text>
</g>
<!-- Kafka Connect&#45;&gt;Kafka -->
<g id="edge2" class="edge"><title>Kafka Connect&#45;&gt;Kafka</title>
<path fill="none" stroke="black" d="M362.111,-18C402.396,-18 459.02,-18 495.614,-18"/>
<polygon fill="black" stroke="black" points="495.83,-21.5001 505.83,-18 495.83,-14.5001 495.83,-21.5001"/>
<text text-anchor="middle" x="434" y="-21.8" font-family="Times,serif" font-size="14.00">Writes messages to</text>
</g>
</g>
</svg>
