<?xml version="1.0" encoding="UTF-8" standalone="no"?>
<!DOCTYPE svg PUBLIC "-//W3C//DTD SVG 1.1//EN"
 "http://www.w3.org/Graphics/SVG/1.1/DTD/svg11.dtd">
<!-- Generated by graphviz version 2.40.1 (20161225.0304)
 -->
<!-- Title: %0 Pages: 1 -->
<svg width="577pt" height="44pt"
 viewBox="0.00 0.00 576.56 44.00" xmlns="http://www.w3.org/2000/svg" xmlns:xlink="http://www.w3.org/1999/xlink">
<g id="graph0" class="graph" transform="scale(1 1) rotate(0) translate(4 40)">
<title>%0</title>
<polygon fill="#ffffff" stroke="transparent" points="-4,4 -4,-40 572.5626,-40 572.5626,4 -4,4"/>
<!-- TCPSyslogSourceConnector -->
<g id="node1" class="node">
<title>TCPSyslogSourceConnector</title>
<polygon fill="none" stroke="#000000" points="176.9685,-36 .0105,-36 .0105,0 176.9685,0 176.9685,-36"/>
<text text-anchor="middle" x="88.4895" y="-13.8" font-family="Times,serif" font-size="14.00" fill="#000000">TCPSyslogSourceConnector</text>
</g>
<!-- Kafka Connect -->
<g id="node2" class="node">
<title>Kafka Connect</title>
<polygon fill="none" stroke="#000000" points="370.6652,-36 269.9584,-36 269.9584,0 370.6652,0 370.6652,-36"/>
<text text-anchor="middle" x="320.3118" y="-13.8" font-family="Times,serif" font-size="14.00" fill="#000000">Kafka Connect</text>
</g>
<!-- TCPSyslogSourceConnector&#45;&gt;Kafka Connect -->
<g id="edge1" class="edge">
<title>TCPSyslogSourceConnector&#45;&gt;Kafka Connect</title>
<path fill="none" stroke="#000000" d="M177.1239,-18C204.7602,-18 234.5897,-18 259.8319,-18"/>
<polygon fill="#000000" stroke="#000000" points="259.9864,-21.5001 269.9864,-18 259.9863,-14.5001 259.9864,-21.5001"/>
<text text-anchor="middle" x="223.5572" y="-22.2" font-family="Times,serif" font-size="14.00" fill="#000000">Hosted by</text>
</g>
<!-- Kafka -->
<g id="node3" class="node">
<title>Kafka</title>
<polygon fill="none" stroke="#000000" points="568.5626,-36 514.5626,-36 514.5626,0 568.5626,0 568.5626,-36"/>
<text text-anchor="middle" x="541.5626" y="-13.8" font-family="Times,serif" font-size="14.00" fill="#000000">Kafka</text>
</g>
<!-- Kafka Connect&#45;&gt;Kafka -->
<g id="edge2" class="edge">
<title>Kafka Connect&#45;&gt;Kafka</title>
<path fill="none" stroke="#000000" d="M370.517,-18C411.1317,-18 467.4198,-18 504.1559,-18"/>
<polygon fill="#000000" stroke="#000000" points="504.4295,-21.5001 514.4294,-18 504.4294,-14.5001 504.4295,-21.5001"/>
<text text-anchor="middle" x="442.5254" y="-22.2" font-family="Times,serif" font-size="14.00" fill="#000000">Writes messages to</text>
</g>
</g>
</svg>
