<?xml version="1.0" encoding="UTF-8" standalone="no"?>
<!DOCTYPE svg PUBLIC "-//W3C//DTD SVG 1.1//EN"
 "http://www.w3.org/Graphics/SVG/1.1/DTD/svg11.dtd">
<!-- Generated by graphviz version 2.40.1 (20161225.0304)
 -->
<!-- Title: %0 Pages: 1 -->
<svg width="554pt" height="44pt"
 viewBox="0.00 0.00 553.98 44.00" xmlns="http://www.w3.org/2000/svg" xmlns:xlink="http://www.w3.org/1999/xlink">
<g id="graph0" class="graph" transform="scale(1 1) rotate(0) translate(4 40)">
<title>%0</title>
<polygon fill="#ffffff" stroke="transparent" points="-4,4 -4,-40 549.9792,-40 549.9792,4 -4,4"/>
<!-- TwitterSourceConnector -->
<g id="node1" class="node">
<title>TwitterSourceConnector</title>
<polygon fill="none" stroke="#000000" points="154.5939,-36 -.1983,-36 -.1983,0 154.5939,0 154.5939,-36"/>
<text text-anchor="middle" x="77.1978" y="-13.8" font-family="Times,serif" font-size="14.00" fill="#000000">TwitterSourceConnector</text>
</g>
<!-- Kafka Connect -->
<g id="node2" class="node">
<title>Kafka Connect</title>
<polygon fill="none" stroke="#000000" points="348.0818,-36 247.375,-36 247.375,0 348.0818,0 348.0818,-36"/>
<text text-anchor="middle" x="297.7284" y="-13.8" font-family="Times,serif" font-size="14.00" fill="#000000">Kafka Connect</text>
</g>
<!-- TwitterSourceConnector&#45;&gt;Kafka Connect -->
<g id="edge1" class="edge">
<title>TwitterSourceConnector&#45;&gt;Kafka Connect</title>
<path fill="none" stroke="#000000" d="M154.6385,-18C181.6904,-18 211.6425,-18 237.1226,-18"/>
<polygon fill="#000000" stroke="#000000" points="237.3805,-21.5001 247.3804,-18 237.3804,-14.5001 237.3805,-21.5001"/>
<text text-anchor="middle" x="200.9738" y="-22.2" font-family="Times,serif" font-size="14.00" fill="#000000">Hosted by</text>
</g>
<!-- Kafka -->
<g id="node3" class="node">
<title>Kafka</title>
<polygon fill="none" stroke="#000000" points="545.9792,-36 491.9792,-36 491.9792,0 545.9792,0 545.9792,-36"/>
<text text-anchor="middle" x="518.9792" y="-13.8" font-family="Times,serif" font-size="14.00" fill="#000000">Kafka</text>
</g>
<!-- Kafka Connect&#45;&gt;Kafka -->
<g id="edge2" class="edge">
<title>Kafka Connect&#45;&gt;Kafka</title>
<path fill="none" stroke="#000000" d="M347.9336,-18C388.5483,-18 444.8364,-18 481.5725,-18"/>
<polygon fill="#000000" stroke="#000000" points="481.8461,-21.5001 491.846,-18 481.846,-14.5001 481.8461,-21.5001"/>
<text text-anchor="middle" x="419.942" y="-22.2" font-family="Times,serif" font-size="14.00" fill="#000000">Writes messages to</text>
</g>
</g>
</svg>
