<?xml version="1.0" encoding="UTF-8" standalone="no"?>
<!DOCTYPE svg PUBLIC "-//W3C//DTD SVG 1.1//EN"
 "http://www.w3.org/Graphics/SVG/1.1/DTD/svg11.dtd">
<!-- Generated by graphviz version 2.30.1 (20150306.0020)
 -->
<!-- Title: %3 Pages: 1 -->
<svg width="546pt" height="44pt"
 viewBox="0.00 0.00 546.00 44.00" xmlns="http://www.w3.org/2000/svg" xmlns:xlink="http://www.w3.org/1999/xlink">
<g id="graph0" class="graph" transform="scale(1 1) rotate(0) translate(4 40)">
<title>%3</title>
<polygon fill="white" stroke="white" points="-4,5 -4,-40 543,-40 543,5 -4,5"/>
<!-- TwitterSourceConnector -->
<g id="node1" class="node"><title>TwitterSourceConnector</title>
<polygon fill="none" stroke="black" points="150,-36 0,-36 0,-0 150,-0 150,-36"/>
<text text-anchor="middle" x="75" y="-14.3" font-family="Times,serif" font-size="14.00">TwitterSourceConnector</text>
</g>
<!-- Kafka Connect -->
<g id="node2" class="node"><title>Kafka Connect</title>
<polygon fill="none" stroke="black" points="340,-36 242,-36 242,-0 340,-0 340,-36"/>
<text text-anchor="middle" x="291" y="-14.3" font-family="Times,serif" font-size="14.00">Kafka Connect</text>
</g>
<!-- TwitterSourceConnector&#45;&gt;Kafka Connect -->
<g id="edge1" class="edge"><title>TwitterSourceConnector&#45;&gt;Kafka Connect</title>
<path fill="none" stroke="black" d="M150.246,-18C176.878,-18 206.505,-18 231.602,-18"/>
<polygon fill="black" stroke="black" points="231.698,-21.5001 241.698,-18 231.698,-14.5001 231.698,-21.5001"/>
<text text-anchor="middle" x="196" y="-21.8" font-family="Times,serif" font-size="14.00">Hosted by</text>
</g>
<!-- Kafka -->
<g id="node3" class="node"><title>Kafka</title>
<polygon fill="none" stroke="black" points="538,-36 484,-36 484,-0 538,-0 538,-36"/>
<text text-anchor="middle" x="511" y="-14.3" font-family="Times,serif" font-size="14.00">Kafka</text>
</g>
<!-- Kafka Connect&#45;&gt;Kafka -->
<g id="edge2" class="edge"><title>Kafka Connect&#45;&gt;Kafka</title>
<path fill="none" stroke="black" d="M340.111,-18C380.396,-18 437.02,-18 473.614,-18"/>
<polygon fill="black" stroke="black" points="473.83,-21.5001 483.83,-18 473.83,-14.5001 473.83,-21.5001"/>
<text text-anchor="middle" x="412" y="-21.8" font-family="Times,serif" font-size="14.00">Writes messages to</text>
</g>
</g>
</svg>
