<?xml version="1.0" encoding="UTF-8" standalone="no"?>
<!DOCTYPE svg PUBLIC "-//W3C//DTD SVG 1.1//EN"
 "http://www.w3.org/Graphics/SVG/1.1/DTD/svg11.dtd">
<!-- Generated by graphviz version 2.40.1 (20161225.0304)
 -->
<!-- Title: %0 Pages: 1 -->
<svg width="579pt" height="44pt"
 viewBox="0.00 0.00 578.89 44.00" xmlns="http://www.w3.org/2000/svg" xmlns:xlink="http://www.w3.org/1999/xlink">
<g id="graph0" class="graph" transform="scale(1 1) rotate(0) translate(4 40)">
<title>%0</title>
<polygon fill="#ffffff" stroke="transparent" points="-4,4 -4,-40 574.8866,-40 574.8866,4 -4,4"/>
<!-- UDPSyslogSourceConnector -->
<g id="node1" class="node">
<title>UDPSyslogSourceConnector</title>
<polygon fill="none" stroke="#000000" points="179.4548,-36 -.1518,-36 -.1518,0 179.4548,0 179.4548,-36"/>
<text text-anchor="middle" x="89.6515" y="-13.8" font-family="Times,serif" font-size="14.00" fill="#000000">UDPSyslogSourceConnector</text>
</g>
<!-- Kafka Connect -->
<g id="node2" class="node">
<title>Kafka Connect</title>
<polygon fill="none" stroke="#000000" points="372.9892,-36 272.2824,-36 272.2824,0 372.9892,0 372.9892,-36"/>
<text text-anchor="middle" x="322.6358" y="-13.8" font-family="Times,serif" font-size="14.00" fill="#000000">Kafka Connect</text>
</g>
<!-- UDPSyslogSourceConnector&#45;&gt;Kafka Connect -->
<g id="edge1" class="edge">
<title>UDPSyslogSourceConnector&#45;&gt;Kafka Connect</title>
<path fill="none" stroke="#000000" d="M179.3961,-18C207.1118,-18 236.963,-18 262.2036,-18"/>
<polygon fill="#000000" stroke="#000000" points="262.3562,-21.5001 272.3562,-18 262.3562,-14.5001 262.3562,-21.5001"/>
<text text-anchor="middle" x="225.8812" y="-22.2" font-family="Times,serif" font-size="14.00" fill="#000000">Hosted by</text>
</g>
<!-- Kafka -->
<g id="node3" class="node">
<title>Kafka</title>
<polygon fill="none" stroke="#000000" points="570.8866,-36 516.8866,-36 516.8866,0 570.8866,0 570.8866,-36"/>
<text text-anchor="middle" x="543.8866" y="-13.8" font-family="Times,serif" font-size="14.00" fill="#000000">Kafka</text>
</g>
<!-- Kafka Connect&#45;&gt;Kafka -->
<g id="edge2" class="edge">
<title>Kafka Connect&#45;&gt;Kafka</title>
<path fill="none" stroke="#000000" d="M372.841,-18C413.4557,-18 469.7438,-18 506.4799,-18"/>
<polygon fill="#000000" stroke="#000000" points="506.7535,-21.5001 516.7534,-18 506.7534,-14.5001 506.7535,-21.5001"/>
<text text-anchor="middle" x="444.8494" y="-22.2" font-family="Times,serif" font-size="14.00" fill="#000000">Writes messages to</text>
</g>
</g>
</svg>
